<svg width="290" height="161" viewBox="0 0 290 161" fill="none" xmlns="http://www.w3.org/2000/svg">
<path d="M118.512 77.7132C115.135 77.7129 111.895 76.5385 109.506 74.4484C107.118 72.3582 105.776 69.5234 105.775 66.5673C105.775 64.55 105.775 63.0084 105.78 62.789C105.887 55.8832 107.875 49.0992 111.577 43C105.494 50.288 102.149 59.0502 102.005 68.0746C102.001 68.2938 102 69.8353 102 71.853C102 74.8091 103.342 77.6441 105.731 79.7345C108.119 81.8249 111.359 82.9995 114.737 83C117.513 82.999 120.212 82.2052 122.426 80.7391C124.639 79.273 126.245 77.2148 127 74.8771C124.668 76.7066 121.645 77.7167 118.512 77.7132Z" fill="#3F3D56"/>
<path d="M129.564 157.495C126.916 156.639 124.572 155.339 122.718 153.696C120.864 152.053 119.549 150.113 118.879 148.028C118.208 145.944 118.199 143.772 118.853 141.685C119.507 139.597 120.806 137.651 122.647 136C120.513 137.157 118.734 138.637 117.429 140.342C116.125 142.048 115.324 143.94 115.08 145.893C114.836 147.846 115.154 149.815 116.014 151.669C116.874 153.524 118.256 155.222 120.067 156.65C121.879 158.078 124.079 159.203 126.522 159.952C128.965 160.701 131.594 161.056 134.236 160.993C136.877 160.93 139.471 160.451 141.844 159.587C144.217 158.724 146.315 157.496 148 155.985C145.373 157.409 142.288 158.299 139.053 158.564C135.819 158.829 132.547 158.461 129.564 157.495V157.495Z" fill="#3F3D56"/>
<path d="M139.5 146C144.194 146 148 141.299 148 135.5C148 129.701 144.194 125 139.5 125C134.806 125 131 129.701 131 135.5C131 141.299 134.806 146 139.5 146Z" fill="#233D5F"/>
<path d="M138.805 30.0008C124.183 30.1152 112.21 43.2831 112.003 59.4855C112.001 59.6351 112 60.6869 112 62.0636C112 64.0806 112.723 66.0148 114.01 67.441C115.297 68.8673 117.043 69.6686 118.863 69.669C119.765 69.6688 120.658 69.4717 121.492 69.0889C122.325 68.706 123.082 68.145 123.72 67.4378C124.357 66.7306 124.863 65.8911 125.208 64.9673C125.553 64.0435 125.73 63.0534 125.729 62.0537C125.729 61.1163 125.728 60.4684 125.728 60.4287C125.728 57.9247 126.316 55.4636 127.434 53.2877C128.552 51.1118 130.162 49.2959 132.106 48.0186C134.049 46.7414 136.259 46.0468 138.519 46.0032C140.778 45.9597 143.009 46.5685 144.991 47.77C146.974 48.9715 148.64 50.7242 149.825 52.8557C151.011 54.9872 151.676 57.4241 151.754 59.9266C151.833 62.4291 151.322 64.9111 150.272 67.1284C149.222 69.3458 147.669 71.222 145.766 72.5727L145.769 72.5759C145.769 72.5759 136 79.5438 133.022 89.1037H133.025C132.501 91.0623 132.236 93.0944 132.238 95.1371C132.238 95.9767 132.282 103.323 132.368 109.287C132.398 111.344 133.157 113.306 134.481 114.749C135.805 116.192 137.587 117 139.444 117C140.377 117 141.301 116.795 142.162 116.398C143.024 116.001 143.806 115.419 144.464 114.686C145.121 113.952 145.642 113.082 145.995 112.125C146.348 111.168 146.526 110.143 146.521 109.109C146.491 103.648 146.475 97.2894 146.475 96.8275C146.475 90.9574 151.585 85.1083 155.782 81.2941C160.616 76.9019 164.094 70.9166 165.492 64.1647C165.801 62.775 165.971 61.3518 166 59.9208C166 55.9733 165.295 52.0649 163.926 48.4206C162.557 44.7763 160.551 41.4683 158.023 38.6871C155.495 35.906 152.495 33.7066 149.197 32.2158C145.899 30.725 142.367 29.9722 138.805 30.0008Z" fill="#233D5F"/>
<path d="M141.142 25.7903C144.768 25.9683 148.298 27.0482 151.428 28.9372C154.559 30.8263 157.196 33.4681 159.115 36.6359C161.033 39.8036 162.175 43.4025 162.442 47.1237C162.709 50.8449 162.094 54.5772 160.648 58C162.739 55.4764 164.275 52.5192 165.153 49.3299C166.031 46.1406 166.229 42.7943 165.735 39.519C165.24 36.2437 164.065 33.1166 162.288 30.3507C160.511 27.5848 158.175 25.2452 155.439 23.4915C152.703 21.7378 149.631 20.6111 146.433 20.1883C143.234 19.7655 139.985 20.0566 136.906 21.0416C133.828 22.0266 130.991 23.6824 128.592 25.8961C126.192 28.1099 124.285 30.8295 123 33.8696C125.22 31.1849 128.011 29.0602 131.156 27.6594C134.302 26.2586 137.718 25.6191 141.142 25.7903Z" fill="#3F3D56"/>
<path d="M289.591 0H0.408723C0.300324 0 0.196361 0.0526847 0.119712 0.146453C0.0430618 0.240222 0 0.36738 0 0.499989C0 0.632597 0.0430618 0.759778 0.119712 0.853547C0.196361 0.947315 0.300324 1 0.408723 1H289.591C289.7 1 289.804 0.947315 289.88 0.853547C289.957 0.759778 290 0.632597 290 0.499989C290 0.36738 289.957 0.240222 289.88 0.146453C289.804 0.0526847 289.7 0 289.591 0Z" fill="#3F3D56"/>
<path d="M46.4505 69.2898L51.9555 79.1965L68.4118 85.9981C70.1694 88.6985 75.7547 88.9052 76.161 87.1597C76.617 85.2008 69.3782 82.0482 69.3782 82.0482L55.6121 73.5837L54.4073 66.2968L46.4505 69.2898Z" fill="#ED9DA0"/>
<path d="M47.1002 135.769L46.085 143.151L51.9728 143.521L52.5811 135.769L47.1002 135.769Z" fill="#ED9DA0"/>
<path d="M47.9118 142.044C47.3857 141.538 46.9004 140.998 46.4597 140.429C45.617 139.367 44.8681 144.813 44.8681 144.813C44.8681 144.813 44.0559 147.027 44.2598 148.135C44.4637 149.242 49.1321 149.242 49.9443 149.058C50.7565 148.874 54.8166 149.058 54.8166 149.058H60.9073C66.1862 146.843 60.9073 145.367 60.9073 145.367C59.2829 145.182 53.8017 140.568 53.8017 140.568L52.5835 138.538C51.7716 138.353 50.9591 141.122 50.9591 141.122L47.9118 142.044Z" fill="#2F2E43"/>
<path d="M31.8728 135.861L30.857 143.243L36.7451 143.613L37.3534 135.861H31.8728Z" fill="#ED9DA0"/>
<path d="M32.6854 142.137C32.1593 141.631 31.6741 141.091 31.2334 140.522C30.3896 139.46 29.6411 144.905 29.6411 144.905C29.6411 144.905 28.8292 146.935 29.0328 148.043C29.2364 149.15 33.9051 149.149 34.7173 148.966C35.5295 148.783 39.5896 149.151 39.5896 149.151H45.6803C50.9592 146.936 45.6803 145.459 45.6803 145.459C44.0559 145.275 38.5747 140.66 38.5747 140.66L37.3565 138.63C36.5446 138.446 35.7321 141.214 35.7321 141.214L32.6854 142.137Z" fill="#2F2E43"/>
<path d="M38.5731 88.2438C37.7609 89.1672 38.1672 92.3043 38.1672 92.3043C38.1672 92.3043 36.7461 102.455 37.3553 103.378C37.9645 104.301 36.9494 105.039 36.3395 106.331C35.7297 107.624 35.121 110.761 35.121 110.761C31.6696 113.344 31.8725 125.157 31.8725 125.157L30.6556 135.677C31.0616 136.784 36.7464 136.969 37.5589 136.784C38.3714 136.6 40.8074 119.989 40.8074 119.989L46.2889 110.576C46.2889 110.576 45.883 135.677 45.883 136.785C45.883 137.894 51.3645 137.338 52.5826 137.338C53.8008 137.338 53.8008 118.882 53.8008 118.882L55.019 114.083L61.516 92.1209V89.5371L60.5002 88.2452C60.5002 88.2452 39.385 87.3209 38.5731 88.2438Z" fill="#2F2E43"/>
<path d="M50.653 43.3022C49.3774 45.886 50.1325 49.4927 52.6846 53.4533L42.3302 49.0243L43.9546 47.7324L43.5496 44.0417L50.653 43.3022Z" fill="#ED9DA0"/>
<path d="M47.5058 46.3483C50.9819 46.3483 53.7999 43.7866 53.7999 40.6266C53.7999 37.4665 50.9819 34.9048 47.5058 34.9048C44.0297 34.9048 41.2118 37.4665 41.2118 40.6266C41.2118 43.7866 44.0297 46.3483 47.5058 46.3483Z" fill="#ED9DA0"/>
<path d="M50.653 49.2082C52.0089 49.941 52.8199 51.2865 53.2855 52.6576C54.1473 55.1941 54.666 57.8166 54.8302 60.4672L55.3217 68.4021L61.4125 89.4427C56.1342 93.5033 53.0896 92.5804 45.9827 89.2582C38.8759 85.9361 38.0646 90.3665 38.0646 90.3665C38.0646 90.3665 37.4563 90.1819 38.0646 89.6284C38.6729 89.0748 38.0646 89.6284 37.4563 89.0754C36.848 88.5224 37.4563 89.0754 37.6593 88.5224C37.8623 87.9694 37.6593 88.3376 37.4563 88.1534C37.2533 87.9691 38.2682 86.3065 38.2682 86.3065L36.6447 72.4634L34.6131 52.8997C37.0494 50.1311 43.9518 47.7321 43.9518 47.7321L50.2467 51.7926C52.2783 52.5307 50.6527 49.5778 50.6527 49.5778L50.653 49.2082Z" fill="#E6E6E6"/>
<path d="M31.2642 64.6196L30.4524 75.6935L40.8077 89.1667C40.8077 92.3043 42.6348 93.0424 42.6348 93.0424C43.3268 92.0382 43.9375 90.9896 44.4619 89.9047C45.4777 87.8745 43.8536 86.2135 43.8536 86.2135L36.7479 72.5561L39.7935 65.7272L31.2642 64.6196Z" fill="#ED9DA0"/>
<path d="M34.7139 52.9921C31.2624 54.0995 30.6535 66.0966 30.6535 66.0966C34.7139 64.0663 39.5865 67.3885 39.5865 67.3885C39.5865 67.3885 40.6023 64.2508 41.8198 60.1906C42.1876 59.0484 42.2316 57.8401 41.9476 56.6784C41.6636 55.5166 41.0608 54.439 40.1954 53.546C40.1954 53.546 38.1672 51.885 34.7139 52.9921Z" fill="#E6E6E6"/>
<path d="M45.7643 40.7238C46.4644 40.8066 46.9924 40.1556 47.2367 39.5535C47.4811 38.9513 47.6692 38.2512 48.2766 37.9259C49.1083 37.4819 50.1717 38.0161 51.1223 37.8698C52.1958 37.7043 52.8937 36.67 52.949 35.6814C53.0043 34.6928 52.5709 33.7435 52.1458 32.8308L51.9975 33.9634C52.0173 33.5795 51.9284 33.1974 51.7393 32.8537C51.5503 32.5099 51.2674 32.216 50.9177 32L51.1081 33.6621C51.0673 33.4329 50.9773 33.2133 50.8431 33.0159C50.7088 32.8184 50.5331 32.647 50.3258 32.5114C50.1186 32.3758 49.8839 32.2787 49.6354 32.2257C49.3868 32.1727 49.1291 32.1648 48.8772 32.2025L48.9081 33.1928C47.6718 33.0196 46.419 32.9638 45.1699 33.0262C43.9142 33.0924 42.7126 33.5136 41.733 34.2308C40.3233 35.3449 39.8083 37.1786 39.9797 38.8693C40.1512 40.56 40.9214 42.1485 41.7218 43.6833C41.923 44.0692 42.2016 44.5048 42.6684 44.554C42.8801 44.5566 43.0867 44.4951 43.2558 44.3792C43.4248 44.2633 43.5466 44.0997 43.602 43.9139C43.7025 43.5394 43.6986 43.1479 43.5906 42.7751C43.4256 42.2138 43.3733 41.63 43.4361 41.0518C43.5467 40.4808 43.999 39.9163 44.6321 39.8467C45.2651 39.777 45.9132 40.4348 45.6089 40.9451L45.7643 40.7238Z" fill="#2F2E43"/>
<path d="M67.628 93.2005L77.9556 75.2236C78.1548 74.8779 78.4967 74.6181 78.9063 74.5013C79.3159 74.3845 79.7597 74.4201 80.1404 74.6004L95.1311 81.7177C95.5114 81.8988 95.7971 82.2095 95.9257 82.5819C96.0542 82.9542 96.015 83.3577 95.8167 83.7039L85.4891 101.681C85.2899 102.026 84.948 102.286 84.5384 102.403C84.1289 102.52 83.685 102.484 83.3043 102.304L68.3136 95.1864C67.9334 95.0053 67.6477 94.6946 67.5192 94.3223C67.3907 93.95 67.4298 93.5466 67.628 93.2005Z" fill="#3F3D56"/>
<path d="M204.578 55.2121L197.098 56.9146V49.4588H203.886L204.578 55.2121Z" fill="#F8A8AB"/>
<path d="M198.025 51.5233C202.141 51.5233 205.478 49.212 205.478 46.3609C205.478 43.5099 202.141 41.1986 198.025 41.1986C193.908 41.1986 190.571 43.5099 190.571 46.3609C190.571 49.212 193.908 51.5233 198.025 51.5233Z" fill="#F8A8AB"/>
<path d="M200.072 45.8483C198.824 45.8227 198.004 44.9492 197.521 44.1523C197.037 43.3554 196.537 42.4398 195.38 42.1111C194.433 41.8423 192.763 43.6613 192.018 43.1769C191.238 42.6716 191.998 40.0785 192.824 39.6133C193.65 39.1481 194.781 39.0572 195.845 39.0226C198.446 38.9398 201.052 39.0846 203.6 39.4535C205.176 39.6806 206.795 40.0236 207.932 40.8106C209.371 41.8115 209.739 43.3202 209.842 44.7312C209.949 46.1748 209.829 47.6851 208.815 48.9483C207.801 50.2115 205.681 51.1427 203.647 50.8206C203.442 50.0561 203.65 49.2704 203.73 48.4922C203.811 47.7139 203.727 46.8772 203.041 46.2588C202.355 45.6404 200.893 45.3946 200.097 45.9435" fill="#2F2E43"/>
<path d="M209.241 47.6376C209.988 47.26 210.881 46.9426 211.797 47.0211C212.292 47.0766 212.753 47.2308 213.123 47.465C213.493 47.6991 213.757 48.0029 213.881 48.3392C213.994 48.6774 213.995 49.0289 213.883 49.3673C213.771 49.7056 213.55 50.022 213.236 50.2925C212.597 50.8314 211.724 51.213 210.747 51.3805C210.193 51.5088 209.593 51.5055 209.042 51.3711C208.655 51.245 208.349 51.0242 208.183 50.7514C208.017 50.4786 208.002 50.1728 208.142 49.8929" fill="#2F2E43"/>
<path d="M202.109 138.184H195.104V145.068H202.109V138.184Z" fill="#F8A8AB"/>
<path d="M188.279 149.234C187.543 149.234 186.888 149.223 186.394 149.19C184.534 149.072 182.758 148.119 181.864 147.564C181.669 147.442 181.533 147.281 181.476 147.103C181.418 146.926 181.442 146.74 181.543 146.572C181.616 146.451 181.728 146.342 181.87 146.255C182.012 146.168 182.18 146.104 182.363 146.069L187.279 145.096L195.24 141.375L195.33 141.485C195.764 142.019 196.124 142.579 196.407 143.16C196.46 143.261 196.48 143.369 196.467 143.476C196.454 143.583 196.407 143.687 196.33 143.781C196.239 143.875 196.111 143.949 195.96 143.994C196.104 144.098 196.555 144.311 197.948 144.464C199.978 144.687 200.406 143.229 200.425 143.169L200.438 143.12L200.498 143.093C201.466 142.662 202.061 142.465 202.265 142.507C202.392 142.532 202.606 142.579 203.185 146.548C203.465 147.166 203.53 147.821 203.372 148.459C203.074 149.409 197.08 149.083 195.879 149.008C195.845 149.011 191.356 149.233 188.282 149.233H188.279L188.279 149.234Z" fill="#2F2E43"/>
<path d="M222.056 132.771L216.112 135.339L221.372 141.18L227.316 138.612L222.056 132.771Z" fill="#F8A8AB"/>
<path d="M214.158 148.291C213.448 148.288 212.74 148.243 212.041 148.156C211.782 148.124 211.545 148.037 211.36 147.908C211.175 147.779 211.053 147.613 211.01 147.433C210.979 147.304 210.991 147.171 211.045 147.045C211.099 146.919 211.193 146.803 211.321 146.706L214.753 144.078L218.667 138.003L218.826 138.063C219.602 138.357 220.336 138.701 221.02 139.09C221.142 139.156 221.242 139.241 221.312 139.337C221.383 139.433 221.422 139.538 221.427 139.646C221.422 139.76 221.37 139.87 221.277 139.963C221.477 140.001 222.023 140.015 223.32 139.634C225.214 139.08 224.464 137.684 224.431 137.627L224.404 137.581L224.434 137.537C224.926 136.816 225.277 136.432 225.484 136.392C225.615 136.367 225.829 136.328 229.352 139.486C230.062 139.906 230.617 140.439 230.971 141.038C231.442 141.953 226.107 143.874 225.032 144.25C224.999 144.268 219.415 147.078 217.12 147.878C216.19 148.172 215.175 148.314 214.153 148.293L214.158 148.291Z" fill="#2F2E43"/>
<path d="M207.268 80.6181H187.654L185.874 93.2556L193.662 139.948H203.674L199.669 112.98L215.911 137.328L224.81 133.013L212.129 110.283C212.129 110.283 216.659 90.4812 213.1 85.5484C209.54 80.6157 207.268 80.6176 207.268 80.6176L207.268 80.6181Z" fill="#2F2E43"/>
<path d="M217.023 81.3871H185.874L195.217 53.4949H208.79L217.023 81.3871Z" fill="#2F2E43"/>
<path d="M178.136 52.9463C177.638 51.2503 178.551 49.7002 180.17 49.4846C181.789 49.269 183.505 50.4718 184 52.1678C184.211 52.844 184.178 53.5459 183.903 54.2111L185.873 61.4193L180.782 61.9778L179.38 54.8136C178.751 54.2709 178.324 53.6298 178.136 52.9463Z" fill="#F8A8AB"/>
<path d="M208.458 53.495H196.49L188.422 64.6715L185.377 56.296L178.69 56.7872C178.69 56.7872 180.273 73.1522 187.187 72.5985C194.102 72.0449 210.23 57.3029 208.457 53.4925H208.46L208.458 53.495Z" fill="#2F2E43"/>
<path d="M221.823 96.0008C222.322 97.6968 221.409 99.2472 219.79 99.4625C218.171 99.6778 216.455 98.4753 215.959 96.7793C215.749 96.103 215.782 95.4011 216.056 94.7357L214.086 87.5275L219.178 86.969L220.579 94.1332C221.208 94.6759 221.635 95.317 221.824 96.0005L221.823 96.0008Z" fill="#F8A8AB"/>
<path d="M201.634 53.4952C201.634 53.4952 208.435 53.2961 208.79 53.4952C210.646 54.545 221.536 92.4304 221.536 92.4304H214.637L201.634 53.4952Z" fill="#2F2E43"/>
</svg>
